# xmcd
#
# Track frame offsets: 
#        150
#        11299
#        23125
#        37565
#        51152
#        64381
#        75893
#        90162
#        103833
#        116817
#        129918
#        142033
#        156144
#        168348
#        179619
#        191577
#        204165
#        216239
#        228736
#        241470
#        254524
#        269075
#        282825
#
# Disc length: 3937 seconds
#
# Revision: 1
# Processed by: cddbd v1.5.2PL0 Copyright (c) Steve Scherf et al.
# Submitted via: ExactAudioCopyFreeDBPlugin 1.0
#
DISCID=3f0f5f17
DTITLE=Hank Snow - The Yodelling Ranger, Vol. 1 - Disc 3
DYEAR=1994
DGENRE=Country
TTITLE0=Your Last Kiss Has Broken My Heart
TTITLE1=When It's Over, I'll Be Coming Back To You
TTITLE2=Your Mother Is Praying For You
TTITLE3=Soldier's Last Letter
TTITLE4=Riding Along, Singing A Song
TTITLE5=Don't Hang Around Me Anymore
TTITLE6=Only A Rose From My Mother's Grave
TTITLE7=Too Many Tears
TTITLE8=Your Little Band Of Gold
TTITLE9=Sunny Side Of The Mountain
TTITLE10=You Broke The Chain That Held Our Hearts
TTITLE11=My Blue River Rose
TTITLE12=You Played Love On The Strings Of My Heart
TTITLE13=How She Could Yodel
TTITLE14=Headin' Home
TTITLE15=Dry Those Tears Little Girl And Don't Cry
TTITLE16=In Memory Of You Dear Old Pal
TTITLE17=Can't Have You Blues
TTITLE18=Just Waiting For You
TTITLE19=My Kalua Sweetheart
TTITLE20=I'll Not Forget My Mother's Prayer
TTITLE21=Darling, I'll Always Love You
TTITLE22=Blue Ranger
EXTD=
EXTT0=
EXTT1=
EXTT2=
EXTT3=
EXTT4=
EXTT5=
EXTT6=
EXTT7=
EXTT8=
EXTT9=
EXTT10=
EXTT11=
EXTT12=
EXTT13=
EXTT14=
EXTT15=
EXTT16=
EXTT17=
EXTT18=
EXTT19=
EXTT20=
EXTT21=
EXTT22=
PLAYORDER=
